<svg id="visual" viewBox="0 0 900 600" width="900" height="600" xmlns="http://www.w3.org/2000/svg" xmlns:xlink="http://www.w3.org/1999/xlink" version="1.1"><rect x="0" y="0" width="900" height="600" fill="#fff"></rect><defs><linearGradient id="grad1_0" x1="33.3%" y1="100%" x2="100%" y2="0%"><stop offset="20%" stop-color="#ffffff" stop-opacity="1"></stop><stop offset="80%" stop-color="#ffffff" stop-opacity="1"></stop></linearGradient></defs><defs><linearGradient id="grad2_0" x1="0%" y1="100%" x2="66.7%" y2="0%"><stop offset="20%" stop-color="#ffffff" stop-opacity="1"></stop><stop offset="80%" stop-color="#ffffff" stop-opacity="1"></stop></linearGradient></defs><g transform="translate(900, 600)"><path d="M-216.3 0C-212.6 -19.5 -208.8 -39 -197 -52.8C-185.3 -66.6 -165.5 -74.5 -159.3 -92C-153.2 -109.5 -160.5 -136.4 -153 -153C-145.4 -169.5 -123 -175.8 -103.5 -179.3C-84 -182.8 -67.5 -183.6 -50.7 -189.3C-34 -195 -17 -205.7 0 -216.3L0 0Z" fill="#111827"></path></g><g transform="translate(0, 0)"><path d="M216.3 0C217.6 20.5 218.9 41 209 56C199 71 177.8 80.5 168 97C158.3 113.5 160 136.8 148.5 148.5C137 160.2 112.3 160.1 93.5 161.9C74.7 163.8 62 167.4 47.4 176.8C32.8 186.1 16.4 201.2 0 216.3L0 0Z" fill="#111827"></path></g></svg>