<svg id="visual" viewBox="0 0 900 600" width="900" height="600" xmlns="http://www.w3.org/2000/svg" xmlns:xlink="http://www.w3.org/1999/xlink" version="1.1"><rect x="0" y="0" width="900" height="600" fill="#111827"></rect><defs><linearGradient id="grad1_0" x1="33.3%" y1="100%" x2="100%" y2="0%"><stop offset="20%" stop-color="#111827" stop-opacity="1"></stop><stop offset="80%" stop-color="#111827" stop-opacity="1"></stop></linearGradient></defs><defs><linearGradient id="grad2_0" x1="0%" y1="100%" x2="66.7%" y2="0%"><stop offset="20%" stop-color="#111827" stop-opacity="1"></stop><stop offset="80%" stop-color="#111827" stop-opacity="1"></stop></linearGradient></defs><g transform="translate(900, 600)"><path d="M-540.8 0C-529.6 -27.3 -518.5 -54.5 -511.6 -81C-504.8 -107.5 -502.3 -133.2 -501.2 -162.9C-500.1 -192.5 -500.4 -226.1 -478.5 -243.8C-456.5 -261.5 -412.2 -263.3 -398 -289.2C-383.8 -315.1 -399.7 -365.1 -382.4 -382.4C-365.2 -399.8 -314.8 -384.4 -287.4 -395.6C-260.1 -406.8 -255.7 -444.6 -238.8 -468.7C-221.9 -492.8 -192.3 -503.3 -163.2 -502.2C-134 -501 -105.2 -488.3 -78.1 -492.9C-50.9 -497.4 -25.5 -519.1 0 -540.8L0 0Z" fill="#fff"></path></g><g transform="translate(0, 0)"><path d="M540.8 0C517.1 24.2 493.3 48.5 494.8 78.4C496.3 108.3 523.1 143.8 514.4 167.1C505.6 190.5 461.4 201.7 446.4 227.4C431.3 253.2 445.4 293.3 430.4 312.7C415.3 332.1 371.1 330.6 349.3 349.3C327.5 368 328 407 312.7 430.4C297.4 453.8 266.3 461.6 236.5 464.2C206.8 466.8 178.3 464.1 153 470.8C127.6 477.4 105.2 493.4 80.3 506.7C55.3 519.9 27.6 530.4 0 540.8L0 0Z" fill="#fff"></path></g></svg>