<svg id="visual" viewBox="0 0 900 600" width="900" height="600" xmlns="http://www.w3.org/2000/svg" xmlns:xlink="http://www.w3.org/1999/xlink" version="1.1"><rect x="0" y="0" width="900" height="600" fill="#fff"></rect><defs><linearGradient id="grad1_0" x1="33.3%" y1="0%" x2="100%" y2="100%"><stop offset="20%" stop-color="#ffffff" stop-opacity="1"></stop><stop offset="80%" stop-color="#ffffff" stop-opacity="1"></stop></linearGradient></defs><defs><linearGradient id="grad2_0" x1="0%" y1="0%" x2="66.7%" y2="100%"><stop offset="20%" stop-color="#ffffff" stop-opacity="1"></stop><stop offset="80%" stop-color="#ffffff" stop-opacity="1"></stop></linearGradient></defs><g transform="translate(900, 0)"><path d="M0 540.8C-27.3 529.6 -54.5 518.5 -81 511.6C-107.5 504.8 -133.2 502.3 -162.9 501.2C-192.5 500.1 -226.1 500.4 -243.8 478.5C-261.5 456.5 -263.3 412.2 -289.2 398C-315.1 383.8 -365.1 399.7 -382.4 382.4C-399.8 365.2 -384.4 314.8 -395.6 287.4C-406.8 260.1 -444.6 255.7 -468.7 238.8C-492.8 221.9 -503.3 192.3 -502.2 163.2C-501 134 -488.3 105.2 -492.9 78.1C-497.4 50.9 -519.1 25.5 -540.8 0L0 0Z" fill="#111827"></path></g><g transform="translate(0, 600)"><path d="M0 -540.8C24.2 -517.1 48.5 -493.3 78.4 -494.8C108.3 -496.3 143.8 -523.1 167.1 -514.4C190.5 -505.6 201.7 -461.4 227.4 -446.4C253.2 -431.3 293.3 -445.4 312.7 -430.4C332.1 -415.3 330.6 -371.1 349.3 -349.3C368 -327.5 407 -328 430.4 -312.7C453.8 -297.4 461.6 -266.3 464.2 -236.5C466.8 -206.8 464.1 -178.3 470.8 -153C477.4 -127.6 493.4 -105.2 506.7 -80.3C519.9 -55.3 530.4 -27.6 540.8 0L0 0Z" fill="#111827"></path></g></svg>